<?xml version="1.0" encoding="utf-8"?>
<!-- Generator: Adobe Illustrator 27.9.1, SVG Export Plug-In . SVG Version: 6.00 Build 0)  -->
<svg version="1.1" id="Layer_1" xmlns="http://www.w3.org/2000/svg" xmlns:xlink="http://www.w3.org/1999/xlink" x="0px" y="0px"
	 viewBox="0 0 2563.81 1080" style="enable-background:new 0 0 2563.81 1080;" xml:space="preserve">
<style type="text/css">
	.st5{fill:#94F9FF;}
</style>
<g>
	<g>
		<g>
			<path class="st5" d="M454.75,836.94h-43.88c-86.59,0-183.43-70.42-183.43-164.67V341.9c-0.26-6.8-0.67-47.93,25.62-75.53
				c14.52-15.25,34.74-23.31,58.46-23.31c25.01,0,45.48,8.04,60.85,23.9c26.93,27.79,26.99,69.9,26.9,74.74v293.65
				c0,24.15,19.65,43.79,43.8,43.79c46.57,0,82.84-12.09,107.8-35.94c23.88-22.8,36.07-56.37,37.27-102.62l0.12-4.28
				c0.86-30.58,2.15-76.79-25.23-104.95c-15.28-15.71-38.74-24.94-69.91-27.56v118.13H454.5V364.41h19.31
				c51.75,0,91.08,13.47,116.9,40.03c38.75,39.85,37.12,98.13,36.14,132.95l-0.11,4.19c-1.48,56.97-17.58,99.34-49.2,129.54
				c-32.39,30.94-77.64,46.63-134.48,46.63c-45.44,0-82.41-36.97-82.41-82.41l0.01-294.46c0-0.22,0.48-30.18-16.14-47.18
				c-7.92-8.1-18.72-12.03-33-12.03c-13.26,0-23.24,3.7-30.49,11.32c-13.45,14.12-15.38,39.7-15,47.55l0.02,0.94v330.79
				c0,70.99,77.85,126.05,144.81,126.05h43.88c55.17,0,103.6-11.02,143.92-32.75c39.85-21.48,70.79-51.8,91.98-90.11
				c21.4-38.72,32.26-83.94,32.26-134.39c0-50.43-10.85-95.51-32.23-133.96c-21.15-38.03-51.93-67.94-91.5-88.93
				c-40.1-21.25-88.7-32.03-144.42-32.03l-1.7-38.3c62.1,0,118.47,11.98,164.21,36.21c46.27,24.54,82.33,59.62,107.16,104.28
				c24.62,44.26,37.1,95.65,37.1,152.73c0,57.06-12.47,108.56-37.08,153.07c-24.82,44.9-60.98,80.37-107.45,105.42
				C570.97,824.37,516.39,836.94,454.75,836.94z"/>
		</g>
	</g>
	<g>
		<path class="st5" d="M929.06,469.73h42.84v24.38h-74.97v-131.6h32.13V469.73z"/>
		<path class="st5" d="M1069.04,470.11h-49.79l-8.27,24.01h-33.82l48.67-130.67h37.02l48.67,130.67h-34.2L1069.04,470.11z
			 M1060.77,445.91l-16.54-48.39l-16.72,48.39H1060.77z"/>
		<path class="st5" d="M1273.29,363.45v130.67h-32.13V412.4l-28.56,81.71h-27.81l-28.75-81.9v81.9h-32.13V363.45h39.27l35.89,91.02
			l35.14-91.02H1273.29z"/>
		<path class="st5" d="M1327.6,447.96v46.16h-32.13v-131.6h52.05c15.78,0,27.81,3.88,36.08,11.63c8.27,7.76,12.4,18.21,12.4,31.36
			c0,8.19-1.85,15.48-5.54,21.87c-3.7,6.39-9.18,11.42-16.44,15.08c-7.27,3.66-16.1,5.49-26.49,5.49H1327.6z M1363.3,405.52
			c0-11.54-6.45-17.31-19.35-17.31h-16.35v34.25h16.35C1356.84,422.45,1363.3,416.81,1363.3,405.52z"/>
		<path class="st5" d="M1479.98,494.12l-28.75-49.7h-7.33v49.7h-32.13v-131.6h54.87c10.52,0,19.42,1.8,26.68,5.4
			c7.26,3.6,12.71,8.53,16.35,14.8c3.63,6.27,5.45,13.43,5.45,21.5c0,9.56-2.66,17.68-7.99,24.38c-5.33,6.7-13.06,11.29-23.21,13.77
			l31.57,51.75H1479.98z M1443.91,422.64h19.92c6.39,0,11.09-1.4,14.09-4.19c3.01-2.79,4.51-6.92,4.51-12.38
			c0-5.21-1.53-9.31-4.6-12.29c-3.07-2.98-7.74-4.47-14-4.47h-19.92V422.64z"/>
		<path class="st5" d="M1563.41,387.83v27.55h44.91v24.01h-44.91v29.22h50.54v25.5h-82.68v-131.6h82.68v25.31H1563.41z"/>
		<path class="st5" d="M1734.87,374.43c11.09,8.81,18.26,20.73,21.52,35.74h-34.01c-2.51-6.08-6.36-10.86-11.56-14.33
			c-5.2-3.47-11.37-5.21-18.51-5.21c-9.39,0-16.98,3.41-22.74,10.24c-5.76,6.83-8.64,15.95-8.64,27.36
			c0,11.42,2.88,20.51,8.64,27.27c5.76,6.77,13.34,10.14,22.74,10.14c7.14,0,13.31-1.74,18.51-5.21c5.2-3.47,9.05-8.19,11.56-14.15
			h34.01c-3.26,14.89-10.43,26.77-21.52,35.65c-11.09,8.87-25.08,13.31-42,13.31c-12.9,0-24.24-2.82-34.01-8.47
			c-9.77-5.65-17.32-13.56-22.64-23.73c-5.33-10.17-7.98-21.78-7.98-34.81c0-13.03,2.66-24.63,7.98-34.81
			c5.32-10.17,12.87-18.08,22.64-23.73c9.77-5.64,21.11-8.47,34.01-8.47C1709.78,361.22,1723.78,365.62,1734.87,374.43z"/>
		<path class="st5" d="M1889.23,362.52v131.6h-32.32v-54.91h-50.36v54.91h-32.13v-131.6h32.13v51h50.36v-51H1889.23z"/>
		<path class="st5" d="M2006.85,362.52v25.31h-36.08v106.28h-32.32V387.83h-35.7v-25.31H2006.85z"/>
		<path class="st5" d="M1008.07,685.75c-5.58,9.99-13.59,17.78-24.05,23.36c-10.46,5.58-22.77,8.38-36.92,8.38h-50.17v-131.6h50.17
			c14.28,0,26.62,2.73,37.02,8.19c10.4,5.46,18.38,13.15,23.96,23.08c5.57,9.93,8.36,21.34,8.36,34.25
			C1016.43,664.31,1013.64,675.76,1008.07,685.75z M973.49,679.14c6.95-6.58,10.43-15.82,10.43-27.74
			c0-11.91-3.48-21.16-10.43-27.73c-6.95-6.58-16.69-9.87-29.22-9.87h-15.22V689h15.22C956.8,689,966.54,685.72,973.49,679.14z"/>
		<path class="st5" d="M1066.79,611.2v27.55h44.91v24.01h-44.91v29.22h50.54v25.5h-82.68v-131.6h82.68v25.32H1066.79z"/>
		<path class="st5" d="M1160.36,585.88l32.51,99.03l32.51-99.03h34.39l-46.22,131.6h-41.53l-46.04-131.6H1160.36z"/>
		<path class="st5" d="M1304.29,611.2v27.55h44.91v24.01h-44.91v29.22h50.54v25.5h-82.68v-131.6h82.68v25.32H1304.29z"/>
		<path class="st5" d="M1405.19,693.1h42.84v24.38h-74.97v-131.6h32.13V693.1z"/>
		<path class="st5" d="M1560.12,592.49c10.21,5.77,18.26,13.78,24.14,24.01c5.89,10.24,8.83,21.81,8.83,34.71
			c0,12.91-2.98,24.51-8.92,34.81c-5.95,10.3-14.03,18.33-24.24,24.11c-10.21,5.77-21.51,8.65-33.92,8.65
			c-12.4,0-23.71-2.88-33.92-8.65c-10.21-5.77-18.29-13.8-24.24-24.11c-5.95-10.3-8.92-21.9-8.92-34.81
			c0-12.9,2.97-24.48,8.92-34.71c5.95-10.24,14.03-18.24,24.24-24.01c10.21-5.77,21.52-8.65,33.92-8.65
			C1538.54,583.84,1549.91,586.72,1560.12,592.49z M1500.93,623.58c-6.2,6.76-9.3,15.98-9.3,27.64c0,11.54,3.1,20.72,9.3,27.55
			c6.2,6.83,14.56,10.24,25.08,10.24c10.4,0,18.73-3.41,24.99-10.24c6.26-6.82,9.39-16.01,9.39-27.55s-3.1-20.72-9.3-27.55
			c-6.2-6.82-14.56-10.24-25.09-10.24C1515.49,613.43,1507.13,616.81,1500.93,623.58z"/>
		<path class="st5" d="M1643.26,671.32v46.16h-32.13v-131.6h52.05c15.78,0,27.81,3.88,36.08,11.63c8.27,7.76,12.4,18.21,12.4,31.36
			c0,8.19-1.85,15.48-5.54,21.87c-3.7,6.39-9.18,11.42-16.44,15.08c-7.27,3.66-16.1,5.49-26.49,5.49H1643.26z M1678.97,628.88
			c0-11.54-6.45-17.31-19.35-17.31h-16.35v34.25h16.35C1672.51,645.82,1678.97,640.17,1678.97,628.88z"/>
		<path class="st5" d="M1759.57,611.2v27.55h44.91v24.01h-44.91v29.22h50.54v25.5h-82.68v-131.6h82.68v25.32H1759.57z"/>
		<path class="st5" d="M1977.73,586.81v130.67h-32.13v-81.71l-28.56,81.71h-27.81l-28.75-81.9v81.9h-32.13V586.81h39.27l35.89,91.02
			l35.14-91.02H1977.73z"/>
		<path class="st5" d="M2032.03,611.2v27.55h44.91v24.01h-44.91v29.22h50.54v25.5h-82.68v-131.6h82.68v25.32H2032.03z"/>
		<path class="st5" d="M2218.8,717.48h-32.13l-53.74-80.78v80.78h-32.13v-131.6h32.13l53.74,81.53v-81.53h32.13V717.48z"/>
		<path class="st5" d="M2336.43,585.88v25.32h-36.08v106.28h-32.32V611.2h-35.7v-25.32H2336.43z"/>
	</g>
</g>
</svg>
