<?xml version="1.0" encoding="UTF-8"?>
<svg id="Layer_1" data-name="Layer 1" xmlns="http://www.w3.org/2000/svg" viewBox="0 0 534.14 803.83">
  <defs>
    <style>
      .cls-1 {
        fill: #94F9FF;
        stroke-width: 0px;
      }
    </style>
  </defs>
  <path class="cls-1" d="m227.37,593.88h-43.88C96.9,593.88.06,523.46.06,429.22V98.84c-.26-6.8-.67-47.93,25.62-75.53C40.2,8.06,60.42,0,84.14,0c25.01,0,45.48,8.04,60.85,23.9,26.93,27.79,26.99,69.9,26.9,74.74v293.65c0,24.15,19.65,43.79,43.8,43.79,46.57,0,82.84-12.09,107.8-35.94,23.88-22.8,36.07-56.37,37.27-102.62l.12-4.28c.86-30.58,2.15-76.79-25.23-104.95-15.28-15.71-38.74-24.94-69.91-27.56v118.13h-38.61V121.35h19.31c51.75,0,91.08,13.47,116.9,40.03,38.75,39.85,37.12,98.13,36.14,132.95l-.11,4.19c-1.48,56.97-17.58,99.34-49.2,129.54-32.39,30.94-77.64,46.63-134.48,46.63-45.44,0-82.41-36.97-82.41-82.41V97.83c.01-.22.49-30.18-16.13-47.18-7.92-8.1-18.72-12.03-33-12.03-13.26,0-23.24,3.7-30.49,11.32-13.45,14.12-15.38,39.7-15,47.55l.02.94v330.79c0,70.99,77.85,126.05,144.81,126.05h43.88c55.17,0,103.6-11.02,143.92-32.75,39.85-21.48,70.79-51.8,91.98-90.11,21.4-38.72,32.26-83.94,32.26-134.39s-10.85-95.51-32.23-133.96c-21.15-38.03-51.93-67.94-91.5-88.93-40.1-21.25-88.7-32.03-144.42-32.03l-1.7-38.3c62.1,0,118.47,11.98,164.21,36.21,46.27,24.54,82.33,59.62,107.16,104.28,24.62,44.26,37.1,95.65,37.1,152.73s-12.47,108.56-37.08,153.07c-24.82,44.9-60.98,80.37-107.45,105.42-46.02,24.8-100.6,37.37-162.24,37.37Z"/>
</svg>